# xmcd CD database file
#
# Track frame offsets:
#	150
#	5807
#	10361
#	11951
#	13760
#	14554
#	16012
#	17843
#	19320
#	22140
#	24960
#	26235
#	27036
#	27894
#	29968
#	32749
#	33713
#	34674
#	35706
#	37954
#	40298
#	45445
#	48292
#	50443
#	51822
#	52722
#	55473
#	58043
#	60580
#	63243
#	64492
#	66109
#	67595
#	71540
#	76490
#	79290
#	83259
#	85594
#	88753
#	92616
#	94828
#	101489
#	115445
#	118347
#	123088
#	128259
#	131339
#	133553
#	140521
#	146908
#	150409
#	154024
#	166534
#	176857
#	184310
#
# Disc length: 2559 seconds
#
# Revision: 0
# Processed by: cddbd v1.5.2PL0 Copyright (c) Steve Scherf et al.
# Submitted via: CDex 1.51
#
DISCID=e009fd37
DTITLE=Pete Madson - Slide guitar
DYEAR=2005
DGENRE=Blues
TTITLE0=Introduction by Pete Madson
TTITLE1=Execise 1
TTITLE2=Execise 2
TTITLE3=Execise 3
TTITLE4=Execise 4
TTITLE5=Execise 5
TTITLE6=Execise 6
TTITLE7=Execise 7
TTITLE8=Execise 8
TTITLE9=Execise 9
TTITLE10=Execise 10
TTITLE11=Execise 11
TTITLE12=Execise 12
TTITLE13=Execise 13
TTITLE14=Execise 14
TTITLE15=Execise 15
TTITLE16=Execise 16
TTITLE17=Execise 17
TTITLE18=Execise 18
TTITLE19=Execise 19
TTITLE20=Execise 20
TTITLE21=Execise 21
TTITLE22=Execise 22
TTITLE23=Execise 23
TTITLE24=Execise 24
TTITLE25=Execise 25
TTITLE26=Execise 26
TTITLE27=Execise 27
TTITLE28=Execise 28
TTITLE29=Execise 29
TTITLE30=Execise 30
TTITLE31=Execise 31
TTITLE32=Execise 32
TTITLE33=Hope Spring Eternal
TTITLE34=Son House Groove
TTITLE35=Crossroad Grove
TTITLE36=Poor Man Blues
TTITLE37=Boogie On A Roll
TTITLE38=Tampa Red Style
TTITLE39=Charlie Pattog Groove
TTITLE40=The Forlorn
TTITLE41=Goin' Down To Richmond
TTITLE42=Muddy Waters Style
TTITLE43=Statesboro Bros.
TTITLE44=Georges Harrison Groove
TTITLE45=Sonny Landreth Style
TTITLE46=Lowell George Groove
TTITLE47=Sleepwalker
TTITLE48=Busted Tooth (Rhythm)
TTITLE49=Swing 05
TTITLE50=Speedy Country
TTITLE51=Watermelon Seeds
TTITLE52=Big Chief - Little Warrior
TTITLE53=Dadgad
TTITLE54=Le Petit Nicolas
EXTD=YEAR: 2005
EXTT0=
EXTT1=
EXTT2=
EXTT3=
EXTT4=
EXTT5=
EXTT6=
EXTT7=
EXTT8=
EXTT9=
EXTT10=
EXTT11=
EXTT12=
EXTT13=
EXTT14=
EXTT15=
EXTT16=
EXTT17=
EXTT18=
EXTT19=
EXTT20=
EXTT21=
EXTT22=
EXTT23=
EXTT24=
EXTT25=
EXTT26=
EXTT27=
EXTT28=
EXTT29=
EXTT30=
EXTT31=
EXTT32=
EXTT33=
EXTT34=
EXTT35=
EXTT36=
EXTT37=
EXTT38=
EXTT39=
EXTT40=
EXTT41=
EXTT42=
EXTT43=
EXTT44=
EXTT45=
EXTT46=
EXTT47=
EXTT48=
EXTT49=
EXTT50=
EXTT51=
EXTT52=
EXTT53=
EXTT54=
PLAYORDER=
